<svg width="24" height="24" viewBox="0 0 24 24" fill="none" xmlns="http://www.w3.org/2000/svg">
<rect x="10" y="10" width="11" height="4" fill="#363636"/>
<circle cx="7" cy="12" r="4.5" fill="#363636"/>
<path d="M6.5 18C4.83333 18 3.41667 17.4167 2.25 16.25C1.08333 15.0833 0.5 13.6667 0.5 12C0.5 10.3333 1.08333 8.91667 2.25 7.75C3.41667 6.58333 4.83333 6 6.5 6C7.61667 6 8.62917 6.275 9.5375 6.825C10.4458 7.375 11.1667 8.1 11.7 9H20.5L23.5 12L19 16.5L17 15L15 16.5L12.875 15H11.7C11.1667 15.9 10.4458 16.625 9.5375 17.175C8.62917 17.725 7.61667 18 6.5 18ZM6.5 16C7.43333 16 8.25417 15.7167 8.9625 15.15C9.67083 14.5833 10.1417 13.8667 10.375 13H13.5L14.95 14.025L17 12.5L18.775 13.875L20.65 12L19.65 11H10.375C10.1417 10.1333 9.67083 9.41667 8.9625 8.85C8.25417 8.28333 7.43333 8 6.5 8C5.4 8 4.45833 8.39167 3.675 9.175C2.89167 9.95833 2.5 10.9 2.5 12C2.5 13.1 2.89167 14.0417 3.675 14.825C4.45833 15.6083 5.4 16 6.5 16Z" fill="white"/>
<path d="M5.0875 13.4125C5.47917 13.8042 5.95 14 6.5 14C7.05 14 7.52083 13.8042 7.9125 13.4125C8.30417 13.0208 8.5 12.55 8.5 12C8.5 11.45 8.30417 10.9792 7.9125 10.5875C7.52083 10.1958 7.05 10 6.5 10C5.95 10 5.47917 10.1958 5.0875 10.5875C4.69583 10.9792 4.5 11.45 4.5 12C4.5 12.55 4.69583 13.0208 5.0875 13.4125Z" fill="#5C86F1"/>
</svg>
