<svg width="8" height="8" viewBox="0 0 8 8" fill="none" xmlns="http://www.w3.org/2000/svg">
<mask id="mask0_14_26" style="mask-type:luminance" maskUnits="userSpaceOnUse" x="0" y="0" width="8" height="8">
<path d="M7.92308 0H0.230774V7.69231H7.92308V0Z" fill="white"/>
</mask>
<g mask="url(#mask0_14_26)">
<path d="M3.18112 2.79999V2.06921C3.18112 2.00767 3.20401 1.9615 3.25735 1.93076L4.71351 1.08461C4.91172 0.96923 5.14807 0.915411 5.39199 0.915411C6.30681 0.915411 6.88625 1.63081 6.88625 2.39232C6.88625 2.44615 6.88625 2.5077 6.87861 2.56924L5.36911 1.67692C5.27764 1.6231 5.18612 1.6231 5.09465 1.67692L3.18112 2.79999ZM6.58127 5.64616V3.89997C6.58127 3.79226 6.53549 3.71533 6.44404 3.6615L4.53051 2.53843L5.15565 2.17687C5.209 2.14613 5.25476 2.14613 5.30811 2.17687L6.76426 3.02302C7.18359 3.2692 7.46563 3.79225 7.46563 4.29992C7.46563 4.88451 7.1226 5.423 6.58127 5.6461V5.64616ZM2.73133 4.10771L2.10619 3.7385C2.05285 3.70777 2.02996 3.66158 2.02996 3.60004V1.90774C2.02996 1.08469 2.65509 0.461569 3.50134 0.461569C3.82157 0.461569 4.11883 0.569286 4.37048 0.761587L2.86862 1.63854C2.77717 1.69236 2.73141 1.76928 2.73141 1.87701V4.10778L2.73133 4.10771ZM4.07692 4.8923L3.18112 4.38463V3.30774L4.07692 2.80007L4.97266 3.30774V4.38463L4.07692 4.8923ZM4.6525 7.2308C4.33228 7.2308 4.03502 7.12309 3.78338 6.9308L5.28522 6.05383C5.37669 6.00002 5.42245 5.9231 5.42245 5.81536V3.5846L6.05524 3.95381C6.10858 3.98454 6.13148 4.03071 6.13148 4.09227V5.78457C6.13148 6.60762 5.49868 7.23074 4.6525 7.23074V7.2308ZM2.84568 5.51542L1.38952 4.66929C0.970183 4.42309 0.688144 3.90005 0.688144 3.39238C0.688144 2.80007 1.03884 2.26931 1.58008 2.04621V3.80005C1.58008 3.90776 1.62586 3.98468 1.71731 4.03852L3.62327 5.15386L2.99813 5.51542C2.94479 5.54616 2.89902 5.54616 2.84568 5.51542ZM2.76187 6.77696C1.90038 6.77696 1.2676 6.12311 1.2676 5.31541C1.2676 5.25387 1.27524 5.19232 1.28282 5.13078L2.78468 6.00773C2.87614 6.06156 2.96767 6.06156 3.05913 6.00773L4.97266 4.89238V5.62316C4.97266 5.6847 4.94978 5.73087 4.89642 5.76161L3.44028 6.60776C3.24205 6.72314 3.00571 6.77696 2.76179 6.77696H2.76187ZM4.6525 7.69231C5.57498 7.69231 6.34493 7.03079 6.52034 6.15384C7.37418 5.93074 7.92308 5.12305 7.92308 4.3C7.92308 3.76151 7.6944 3.23847 7.28271 2.86153C7.32082 2.69998 7.3437 2.53843 7.3437 2.37696C7.3437 1.27697 6.45934 0.453842 5.43775 0.453842C5.23196 0.453842 5.03373 0.484575 4.83551 0.553848C4.49239 0.21537 4.01972 0 3.50134 0C2.57888 0 1.80893 0.661501 1.63352 1.53845C0.779679 1.76155 0.230774 2.56924 0.230774 3.3923C0.230774 3.93079 0.459459 4.45382 0.871149 4.83076C0.833032 4.99231 0.810153 5.15386 0.810153 5.31535C0.810153 6.41533 1.69451 7.23845 2.71609 7.23845C2.9219 7.23845 3.12012 7.20772 3.31835 7.13844C3.66138 7.47692 4.13405 7.69231 4.6525 7.69231Z" fill="white"/>
</g>
</svg>
